<svg width="256" height="256" viewBox="0 0 256 256" fill="none" xmlns="http://www.w3.org/2000/svg">
<rect width="256" height="256" fill="white"/>
<rect width="256" height="256" fill="#8040BE"/>
<path d="M128.382 101.055C113.313 101.055 101.053 113.314 101.053 128.383C101.053 143.452 113.313 155.711 128.382 155.711C133.187 155.711 137.912 154.447 142.049 152.054L138.63 146.139C135.531 147.932 131.986 148.879 128.382 148.879C117.079 148.879 107.885 139.685 107.885 128.383C107.885 117.081 117.079 107.887 128.382 107.887C139.684 107.887 148.878 117.081 148.878 128.383V131.359C148.878 133.594 147.442 135.215 145.462 135.215C143.578 135.215 142.046 133.682 142.046 131.799V118.135H137.323C134.92 116.036 131.816 114.719 128.382 114.719C120.847 114.719 114.717 120.849 114.717 128.383C114.717 135.917 120.847 142.047 128.382 142.047C131.969 142.047 135.213 140.628 137.654 138.359C139.535 140.594 142.318 142.047 145.462 142.047C151.208 142.047 155.71 137.352 155.71 131.359V128.383C155.71 113.314 143.45 101.055 128.382 101.055ZM128.382 135.215C124.613 135.215 121.549 132.151 121.549 128.383C121.549 124.615 124.614 121.551 128.382 121.551C132.15 121.551 135.214 124.615 135.214 128.383C135.214 132.151 132.15 135.215 128.382 135.215Z" fill="white"/>
<path d="M197.228 75.5752V98.908C197.228 99.6848 196.92 100.43 196.37 100.979C195.821 101.529 195.076 101.837 194.299 101.837H188.441C187.664 101.837 186.919 101.529 186.369 100.979C185.82 100.43 185.511 99.6848 185.511 98.908V75.5752C185.511 74.0215 184.894 72.5314 183.796 71.4327C182.697 70.334 181.207 69.7168 179.653 69.7168H156.32C155.543 69.7168 154.798 69.4082 154.249 68.8589C153.7 68.3095 153.391 67.5645 153.391 66.7876V60.9292C153.391 60.1523 153.7 59.4073 154.249 58.8579C154.798 58.3086 155.543 58 156.32 58H179.653C184.314 58 188.785 59.8517 192.081 63.1477C195.377 66.4437 197.228 70.914 197.228 75.5752ZM194.299 153.391H188.441C187.664 153.391 186.919 153.7 186.369 154.249C185.82 154.798 185.511 155.543 185.511 156.32V179.653C185.511 181.207 184.894 182.697 183.796 183.796C182.697 184.894 181.207 185.511 179.653 185.511H156.32C155.543 185.511 154.798 185.82 154.249 186.369C153.7 186.919 153.391 187.664 153.391 188.441V194.299C153.391 195.076 153.7 195.821 154.249 196.37C154.798 196.92 155.543 197.228 156.32 197.228H179.653C184.314 197.228 188.785 195.377 192.081 192.081C195.377 188.785 197.228 184.314 197.228 179.653V156.32C197.228 155.543 196.92 154.798 196.37 154.249C195.821 153.7 195.076 153.391 194.299 153.391ZM98.908 197.228C99.6848 197.228 100.43 196.92 100.979 196.37C101.529 195.821 101.837 195.076 101.837 194.299V188.441C101.837 187.664 101.529 186.919 100.979 186.369C100.43 185.82 99.6848 185.511 98.908 185.511H75.5752C74.0215 185.511 72.5314 184.894 71.4327 183.796C70.334 182.697 69.7168 181.207 69.7168 179.653V156.32C69.7168 155.543 69.4082 154.798 68.8589 154.249C68.3095 153.7 67.5645 153.391 66.7876 153.391H60.9292C60.1523 153.391 59.4073 153.7 58.8579 154.249C58.3086 154.798 58 155.543 58 156.32V179.653C58 184.314 59.8517 188.785 63.1477 192.081C66.4437 195.377 70.914 197.228 75.5752 197.228H98.908ZM58 75.5752V98.908C58 99.6848 58.3086 100.43 58.8579 100.979C59.4073 101.529 60.1523 101.837 60.9292 101.837H66.7876C67.5645 101.837 68.3095 101.529 68.8589 100.979C69.4082 100.43 69.7168 99.6848 69.7168 98.908V75.5752C69.7168 74.0215 70.334 72.5314 71.4327 71.4327C72.5314 70.334 74.0215 69.7168 75.5752 69.7168H98.908C99.6848 69.7168 100.43 69.4082 100.979 68.8589C101.529 68.3095 101.837 67.5645 101.837 66.7876V60.9292C101.837 60.1523 101.529 59.4073 100.979 58.8579C100.43 58.3086 99.6848 58 98.908 58H75.5752C70.914 58 66.4437 59.8517 63.1477 63.1477C59.8517 66.4437 58 70.914 58 75.5752Z" fill="white" fill-opacity="0.6"/>
</svg>
